<svg width="24" height="32" viewBox="0 0 24 32" fill="none" xmlns="http://www.w3.org/2000/svg">
<path d="M13 17V8M13 17C13 18 12.4 20 10 20C7.6 20 7 18 7 17C7 16 7.6 14 10 14C12.4 14 13 16 13 17ZM13 8V4H17V8H13Z" stroke="#1DB954" stroke-width="2" stroke-linecap="round" stroke-linejoin="round"/>
<path d="M3 23L3.87171 23.6974C4.7987 24.439 6.13505 24.3649 6.97448 23.5255V23.5255C7.83529 22.6647 9.21373 22.6118 10.138 23.404L10.3176 23.5579C11.2857 24.3878 12.7143 24.3878 13.6824 23.5579L13.862 23.404C14.7863 22.6118 16.1647 22.6647 17.0255 23.5255V23.5255C17.8649 24.3649 19.2013 24.439 20.1283 23.6974L21 23" stroke="#1DB954" stroke-width="2" stroke-linecap="round" stroke-linejoin="round"/>
<path d="M20.5 27L20.0576 27.4424C19.1974 28.3026 17.8026 28.3026 16.9424 27.4424V27.4424C16.1285 26.6285 14.8252 26.5784 13.9512 27.3275L13.6824 27.5579C12.7143 28.3878 11.2857 28.3878 10.3176 27.5579L10.0488 27.3275C9.17484 26.5784 7.87151 26.6285 7.05761 27.4424V27.4424C6.19736 28.3026 4.80264 28.3026 3.94239 27.4424L3.5 27" stroke="#1DB954" stroke-width="2" stroke-linecap="round" stroke-linejoin="round"/>
</svg>
